# xmcd
#
# Track frame offsets:
#	150
#	18080
#	43452
#	63451
#	76605
#	95797
#	114491
#	144147
#	158662
#
# Disc length: 2345 seconds
#
# Revision: 0
# Processed by: cddbd v1.5.2PL0 Copyright (c) Steve Scherf et al.
# Submitted via: dBpowerAMP V4.0
#
DISCID=69092709
DTITLE=Kepler - Attic Salt
DYEAR=2005
DGENRE=Alternative
TTITLE0=Broken Bottles Blackened Hearts
TTITLE1=Thoroughbred Gin
TTITLE2=My Other
TTITLE3=The Bedside Manner
TTITLE4=You Must Admit
TTITLE5=The National Epithet
TTITLE6=Days of Begging
TTITLE7=Rented Limousine
TTITLE8=Reward and Respite
EXTD=
EXTT0=
EXTT1=
EXTT2=
EXTT3=
EXTT4=
EXTT5=
EXTT6=
EXTT7=
EXTT8=
PLAYORDER=
